<?xml version="1.0" standalone="no"?>
<!DOCTYPE svg PUBLIC "-//W3C//DTD SVG 20010904//EN"
 "http://www.w3.org/TR/2001/REC-SVG-20010904/DTD/svg10.dtd">
<svg version="1.0" xmlns="http://www.w3.org/2000/svg"
 width="240.000000pt" height="240.000000pt" viewBox="0 0 240.000000 240.000000"
 preserveAspectRatio="xMidYMid meet">
<metadata>
Created by potrace 1.12, written by Peter Selinger 2001-2015
</metadata>
<g transform="translate(0.000000,240.000000) scale(0.100000,-0.100000)"
fill="#000000" stroke="none">
<path d="M1291 1209 l-47 -50 -46 40 c-38 34 -53 41 -87 41 -22 0 -45 -6 -50
-12 -6 -7 -22 -28 -37 -45 -14 -18 -30 -33 -34 -33 -5 0 -22 11 -38 25 -17 14
-43 25 -59 25 -40 0 -94 -38 -113 -77 -15 -33 -33 -42 -45 -23 -18 29 -99 -9
-115 -54 -5 -16 -10 -37 -10 -47 0 -14 -17 -23 -73 -39 -94 -27 -188 -54 -260
-75 -31 -9 -63 -25 -70 -35 -7 -10 -35 -24 -62 -30 -93 -23 -125 -41 -125 -72
0 -22 6 -29 27 -34 16 -3 44 -10 63 -15 19 -5 47 -9 61 -9 15 0 36 -11 50 -26
l24 -26 225 7 225 7 22 -30 c20 -27 23 -42 22 -116 -2 -104 18 -166 78 -238
47 -57 57 -84 76 -195 l12 -73 262 0 263 0 -10 26 c-6 14 -10 45 -10 68 0 40
3 45 60 89 39 31 61 56 65 74 16 78 31 109 87 185 95 128 100 139 96 205 -3
56 -2 58 24 61 19 2 30 -3 38 -17 6 -12 21 -21 33 -21 12 0 30 -9 39 -19 9
-11 36 -25 60 -32 24 -7 50 -19 59 -26 20 -16 156 -7 179 12 8 7 28 15 44 19
39 10 125 100 159 167 37 74 47 177 23 234 -33 78 -75 131 -125 158 -27 15
-54 27 -62 27 -7 0 -20 6 -28 14 -9 7 -52 17 -96 20 -80 7 -81 7 -113 -23 -17
-17 -36 -31 -42 -31 -5 0 -32 -20 -60 -45 -31 -28 -56 -42 -65 -38 -9 3 -23
-1 -33 -10 -30 -27 -84 -31 -114 -8 -14 12 -38 21 -53 21 -28 0 -88 52 -99 87
-8 25 -78 63 -116 63 -25 0 -42 -10 -79 -51z"/>
</g>
</svg>
