<?xml version="1.0" standalone="no"?>
<!DOCTYPE svg PUBLIC "-//W3C//DTD SVG 20010904//EN"
 "http://www.w3.org/TR/2001/REC-SVG-20010904/DTD/svg10.dtd">
<svg version="1.0" xmlns="http://www.w3.org/2000/svg"
 width="240.000000pt" height="170.000000pt" viewBox="0 0 240.000000 170.000000"
 preserveAspectRatio="xMidYMid meet">
<metadata>
Created by potrace 1.12, written by Peter Selinger 2001-2015
</metadata>
<g transform="translate(0.000000,170.000000) scale(0.100000,-0.100000)"
fill="#000000" stroke="none">
<path d="M1025 1038 c-24 -13 -62 -23 -95 -24 -30 -2 -72 -10 -94 -19 -48 -20
-159 -109 -176 -140 -7 -13 -14 -65 -16 -117 -7 -199 -14 -231 -48 -222 -13 3
-31 -2 -47 -14 -21 -17 -44 -20 -155 -23 l-130 -4 -70 -52 c-38 -28 -95 -79
-127 -112 l-57 -60 0 -125 0 -126 1191 0 1191 0 -6 27 c-4 16 -7 45 -8 66 -1
33 -7 43 -40 65 -22 14 -45 41 -53 59 -11 25 -27 40 -67 58 -29 14 -63 25 -74
25 -29 0 -104 82 -104 114 0 13 7 41 16 61 17 42 22 144 11 217 -10 59 -57
125 -105 145 -55 23 -227 12 -318 -21 -97 -36 -104 -46 -97 -159 4 -72 2 -100
-11 -131 -14 -34 -19 -38 -43 -33 -16 3 -66 -3 -113 -14 -46 -11 -107 -20
-135 -19 -110 5 -135 1 -135 -19 0 -15 10 -20 48 -25 26 -3 73 -12 104 -18 51
-11 58 -15 64 -41 4 -17 0 -44 -9 -66 -8 -20 -18 -44 -21 -53 -4 -15 -13 -11
-49 25 -51 49 -183 121 -242 132 -68 12 -80 37 -47 98 20 38 98 143 111 151 5
4 13 21 17 39 3 17 13 41 20 52 8 11 14 30 14 44 0 13 15 41 35 62 30 34 35
46 35 90 0 46 -4 55 -39 90 -44 45 -68 48 -126 17z m558 -700 c2 -7 2 -28 -1
-45 -4 -29 -1 -34 24 -44 16 -6 49 -15 73 -20 44 -9 71 -24 71 -40 0 -5 -8 -9
-18 -9 -11 0 -38 -13 -61 -28 l-42 -29 -92 13 c-51 7 -98 13 -105 14 -10 0
-12 13 -7 56 7 69 10 74 40 74 13 0 31 10 39 22 15 20 52 47 68 48 3 0 8 -6
11 -12z"/>
</g>
</svg>
