<?xml version="1.0" standalone="no"?>
<!DOCTYPE svg PUBLIC "-//W3C//DTD SVG 20010904//EN"
 "http://www.w3.org/TR/2001/REC-SVG-20010904/DTD/svg10.dtd">
<svg version="1.0" xmlns="http://www.w3.org/2000/svg"
 width="500.000000pt" height="500.000000pt" viewBox="0 0 500.000000 500.000000"
 preserveAspectRatio="xMidYMid meet">
<metadata>
Created by potrace 1.12, written by Peter Selinger 2001-2015
</metadata>
<g transform="translate(0.000000,500.000000) scale(0.100000,-0.100000)"
fill="#000000" stroke="none">
<path d="M672 4300 c-158 -57 -301 -195 -358 -347 l-24 -62 0 -1014 c0 -1130
-5 -1048 71 -1174 58 -97 205 -223 282 -244 17 -4 57 -15 87 -24 80 -22 1448
-23 1456 0 3 8 -12 35 -36 64 l-42 50 -632 3 -631 3 -74 27 c-41 16 -82 35
-91 43 -9 8 -22 15 -29 15 -18 0 -97 77 -147 142 -25 33 -57 89 -72 126 l-27
67 0 905 0 905 33 81 c18 45 46 96 62 114 17 19 30 37 30 42 0 4 30 32 66 62
47 39 93 65 153 88 l86 33 1710 0 c1004 0 1718 -4 1730 -9 11 -5 23 -9 27 -8
4 1 38 -11 77 -27 108 -44 221 -149 266 -246 66 -142 60 -36 60 -1035 0 -856
-1 -907 -18 -945 -10 -22 -24 -54 -32 -70 -21 -50 -103 -161 -137 -187 -52
-38 -124 -78 -186 -101 -56 -21 -71 -22 -720 -27 l-663 -5 -26 -46 c-49 -85
-106 -79 700 -79 612 0 720 2 767 15 30 9 70 20 87 24 77 21 224 147 282 244
76 126 71 44 71 1174 l0 1014 -24 62 c-52 137 -165 256 -316 330 l-65 32
-1850 2 c-1797 2 -1852 2 -1903 -17z"/>
<path d="M1724 3846 c-3 -8 -4 -27 -2 -43 l3 -28 835 0 835 0 0 40 0 40 -833
3 c-712 2 -833 0 -838 -12z"/>
<path d="M1495 3447 c-29 -12 -66 -29 -182 -83 -28 -13 -58 -24 -65 -24 -8 0
-38 -12 -68 -27 -53 -28 -54 -29 -98 -133 -24 -58 -61 -147 -83 -198 -21 -51
-39 -101 -39 -111 0 -11 14 -52 31 -92 17 -41 43 -105 59 -144 68 -168 75
-181 124 -204 25 -11 48 -21 52 -21 3 0 29 -11 57 -24 113 -52 168 -76 177
-76 5 0 26 -8 45 -17 35 -17 38 -17 67 0 16 9 36 17 44 17 14 0 104 39 184 80
19 10 53 23 74 30 58 19 83 47 115 131 33 85 78 192 110 263 25 55 27 47 -27
176 -22 52 -56 135 -76 183 -45 110 -54 127 -67 127 -5 0 -29 9 -51 20 -23 11
-46 20 -52 20 -5 0 -28 9 -50 19 -219 103 -234 108 -281 88z m121 -167 c42
-17 111 -47 153 -66 l76 -35 24 -67 c13 -37 27 -72 32 -77 4 -6 17 -35 28 -65
12 -30 26 -64 32 -76 15 -30 -113 -340 -145 -350 -11 -4 -39 -15 -61 -25 -22
-10 -58 -25 -80 -32 -22 -8 -63 -25 -90 -37 l-51 -22 -67 31 c-36 17 -69 31
-74 31 -4 0 -41 15 -83 33 l-77 32 -37 95 c-21 52 -44 107 -52 122 -22 41 -43
106 -37 112 4 3 32 70 63 148 43 106 64 146 81 156 42 22 229 102 269 116 8 2
16 5 17 5 1 1 37 -13 79 -29z"/>
<path d="M3465 3439 c-55 -28 -223 -99 -233 -99 -4 0 -25 -9 -47 -20 -22 -11
-45 -20 -52 -20 -13 0 -33 -40 -77 -155 -15 -38 -35 -86 -45 -105 -10 -19 -24
-53 -31 -75 -7 -22 -19 -52 -28 -67 -14 -23 -14 -29 0 -60 26 -54 115 -270
129 -312 18 -50 55 -87 105 -105 21 -7 68 -27 104 -44 36 -16 83 -38 106 -48
22 -11 46 -19 53 -19 6 0 26 -7 43 -16 29 -15 34 -15 65 0 18 9 41 16 49 16
14 0 103 38 184 80 19 10 53 23 75 30 53 17 89 56 110 121 10 30 28 77 41 104
13 28 33 75 44 105 12 30 29 70 37 88 14 30 14 36 0 65 -16 30 -32 70 -98 235
-46 116 -69 162 -80 162 -5 0 -29 9 -51 20 -23 11 -46 20 -51 20 -6 0 -39 14
-74 30 -34 17 -66 30 -70 30 -3 0 -35 14 -70 30 -74 35 -85 36 -138 9z m120
-149 c11 -5 63 -28 115 -50 126 -55 134 -60 155 -117 10 -26 26 -66 35 -88 10
-22 30 -68 44 -103 l25 -63 -26 -57 c-14 -31 -36 -84 -48 -117 -42 -111 -60
-145 -80 -151 -20 -6 -63 -24 -206 -84 l-76 -33 -64 30 c-35 17 -80 36 -99 43
-141 51 -132 43 -173 140 -20 48 -37 92 -37 97 0 6 -14 37 -30 70 l-31 61 44
103 c24 57 53 127 63 154 21 52 26 56 134 105 41 19 144 61 180 73 16 6 44 1
75 -13z"/>
<path d="M2475 2434 c-15 -24 -17 -94 -16 -905 0 -483 -3 -879 -7 -879 -4 0
-95 88 -201 195 -106 107 -201 196 -210 196 -32 3 -46 -3 -73 -29 -44 -41 -37
-64 46 -150 333 -346 514 -522 535 -522 17 0 100 78 310 291 319 325 320 326
262 387 -16 18 -39 32 -52 32 -16 0 -79 -58 -226 -207 l-203 -208 0 886 c0
881 0 886 -21 913 -17 22 -28 26 -74 26 -46 0 -55 -3 -70 -26z"/>
</g>
</svg>
