<?xml version="1.0" standalone="no"?>
<!DOCTYPE svg PUBLIC "-//W3C//DTD SVG 20010904//EN"
 "http://www.w3.org/TR/2001/REC-SVG-20010904/DTD/svg10.dtd">
<svg version="1.0" xmlns="http://www.w3.org/2000/svg"
 width="626.000000pt" height="626.000000pt" viewBox="0 0 626.000000 626.000000"
 preserveAspectRatio="xMidYMid meet">
<metadata>
Created by potrace 1.12, written by Peter Selinger 2001-2015
</metadata>
<g transform="translate(0.000000,626.000000) scale(0.100000,-0.100000)"
fill="#000000" stroke="none">
<path d="M3035 5935 c-27 -8 -68 -20 -89 -27 -45 -15 -144 -106 -172 -158 -18
-34 -19 -95 -22 -2012 -1 -1088 -6 -1978 -11 -1978 -4 0 -33 5 -62 10 -83 16
-312 13 -406 -5 -320 -61 -576 -219 -748 -462 -50 -70 -99 -209 -110 -314 -9
-81 15 -219 52 -304 76 -176 259 -311 510 -377 98 -25 144 -31 268 -35 130 -5
163 -2 250 17 55 12 114 24 130 27 39 6 251 100 292 130 17 13 35 23 40 23 28
1 242 211 275 270 10 19 25 46 33 60 30 52 46 97 65 173 19 77 20 117 20 1057
0 537 3 1389 7 1893 l6 917 36 -6 c20 -4 43 -7 51 -7 43 2 410 -129 410 -146
0 -4 17 -15 38 -25 63 -30 230 -143 330 -224 158 -127 365 -342 495 -513 66
-87 235 -332 277 -399 13 -22 30 -40 38 -40 12 0 14 26 10 158 -5 158 -12 203
-50 342 -11 41 -22 84 -23 95 -4 30 -52 140 -97 225 -87 159 -168 269 -296
399 -114 115 -177 167 -339 280 -213 148 -383 270 -402 288 -7 8 -39 31 -70
52 -31 21 -65 48 -75 60 -11 11 -23 21 -28 21 -33 0 -444 375 -488 446 -11 17
-20 48 -20 68 0 35 -1 36 -37 35 -21 0 -60 -7 -88 -14z"/>
</g>
</svg>
