<?xml version="1.0" standalone="no"?>
<!DOCTYPE svg PUBLIC "-//W3C//DTD SVG 20010904//EN"
 "http://www.w3.org/TR/2001/REC-SVG-20010904/DTD/svg10.dtd">
<svg version="1.0" xmlns="http://www.w3.org/2000/svg"
 width="240.000000pt" height="240.000000pt" viewBox="0 0 240.000000 240.000000"
 preserveAspectRatio="xMidYMid meet">
<metadata>
Created by potrace 1.12, written by Peter Selinger 2001-2015
</metadata>
<g transform="translate(0.000000,240.000000) scale(0.100000,-0.100000)"
fill="#000000" stroke="none">
<path d="M1940 1099 c-14 -6 -59 -21 -100 -34 -95 -29 -181 -62 -193 -74 -17
-17 -9 -95 28 -262 37 -172 56 -246 99 -393 24 -80 27 -119 8 -90 -4 6 -43 67
-88 135 -44 68 -99 153 -121 189 -22 36 -71 113 -109 172 -38 60 -79 125 -91
145 -32 55 -88 68 -203 48 -47 -8 -89 -15 -93 -15 -5 0 -24 -15 -42 -34 -26
-27 -35 -46 -40 -88 -16 -132 -20 -284 -12 -442 4 -94 6 -192 5 -218 l-3 -47
-97 57 c-54 31 -98 62 -98 68 0 6 6 17 14 23 21 18 58 138 61 196 2 58 -12
117 -48 195 -55 120 -156 172 -317 165 -147 -7 -374 -79 -424 -134 -18 -20
-18 -23 19 -163 100 -383 114 -435 125 -466 l12 -32 138 0 c129 0 138 1 143
20 7 27 58 27 75 0 12 -19 23 -20 377 -20 l365 0 2 23 c0 12 2 62 2 112 1 88
1 90 26 93 19 2 31 -6 50 -35 32 -50 131 -176 144 -185 15 -10 354 -10 360 0
2 4 35 9 72 10 113 6 234 55 234 97 0 6 -13 36 -29 66 -16 30 -35 74 -41 99
-7 25 -15 50 -19 55 -9 11 -41 108 -41 122 0 5 35 19 78 33 62 20 87 34 130
75 46 43 56 59 68 110 23 102 19 137 -32 241 -46 96 -86 140 -161 178 -37 18
-191 22 -233 5z"/>
</g>
</svg>
