<?xml version="1.0" standalone="no"?>
<!DOCTYPE svg PUBLIC "-//W3C//DTD SVG 20010904//EN"
 "http://www.w3.org/TR/2001/REC-SVG-20010904/DTD/svg10.dtd">
<svg version="1.0" xmlns="http://www.w3.org/2000/svg"
 width="240.000000pt" height="240.000000pt" viewBox="0 0 240.000000 240.000000"
 preserveAspectRatio="xMidYMid meet">
<metadata>
Created by potrace 1.12, written by Peter Selinger 2001-2015
</metadata>
<g transform="translate(0.000000,240.000000) scale(0.100000,-0.100000)"
fill="#000000" stroke="none">
<path d="M1244 1319 c-10 -4 -41 -13 -69 -20 -38 -10 -64 -26 -109 -68 -32
-31 -64 -67 -71 -81 -24 -46 -46 -149 -50 -234 -3 -57 -12 -103 -28 -143 -23
-58 -23 -58 -73 -65 -27 -4 -98 -26 -159 -49 -60 -23 -134 -50 -163 -60 -87
-30 -145 -67 -192 -122 -63 -72 -146 -201 -166 -256 -31 -87 -76 -196 -86
-208 -8 -10 195 -13 1012 -13 l1022 0 -6 28 c-26 122 -41 216 -41 267 -1 33
-5 70 -9 83 -4 13 -5 34 -2 48 6 22 12 24 60 24 29 0 97 -7 151 -15 115 -17
135 -11 135 40 0 28 -6 37 -30 50 -16 8 -40 15 -54 15 -14 0 -37 5 -53 11 -15
7 -71 20 -124 29 -92 16 -98 19 -134 59 -28 30 -45 41 -67 41 -16 0 -37 4 -47
10 -10 5 -45 11 -77 14 -32 2 -75 9 -94 15 -31 10 -37 9 -52 -9 -9 -11 -18
-26 -21 -33 -7 -20 -18 -1 -24 43 -5 32 -1 45 15 63 11 12 22 31 24 41 4 27
50 37 111 25 68 -12 87 -11 87 5 0 21 -93 75 -150 87 -28 6 -50 16 -51 22 0 7
-1 51 -3 98 -2 86 -2 87 -41 131 -47 52 -127 92 -216 108 -35 6 -80 15 -100
19 -19 4 -44 4 -55 0z m391 -856 c22 1 30 -3 33 -18 7 -30 85 -104 119 -111
46 -9 68 -79 59 -187 -4 -45 -9 -83 -12 -86 -12 -13 -77 36 -96 72 -11 22 -28
42 -39 44 -12 3 -19 14 -19 28 0 31 -35 72 -81 95 -32 17 -39 26 -39 49 0 16
-7 34 -15 41 -15 13 -20 46 -9 73 4 12 12 13 37 6 18 -5 45 -7 62 -6z"/>
</g>
</svg>
